<?xml version="1.0" encoding="utf-8"?>
<svg viewBox="-5.477 22.886 411.418 304.964" xmlns="http://www.w3.org/2000/svg" xmlns:xlink="http://www.w3.org/1999/xlink">
  <defs>
    <linearGradient id="linear-gradient" x1="311.03" y1="208.3" x2="332.41" y2="188.56" gradientUnits="userSpaceOnUse" gradientTransform="matrix(1, 0, 0, 1, -7.446467, 8.439364)">
      <stop offset="0" stop-color="#e75d48"/>
      <stop offset="1" stop-color="#502019"/>
    </linearGradient>
    <linearGradient id="linear-gradient-2" x1="137.47" y1="235.44" x2="163.23" y2="211.66" xlink:href="#linear-gradient"/>
    <linearGradient id="linear-gradient-3" x1="44.8" y1="187.6" x2="68.37" y2="168.6" xlink:href="#linear-gradient"/>
    <linearGradient id="linear-gradient-4" x1="189.93" y1="210.01" x2="218.27" y2="172.22" xlink:href="#linear-gradient"/>
  </defs>
  <path d="M 193.961 312.799 L 4.166 200.634 C -1.874 197.245 -7.056 191.667 -1.17 188.026 L 189.318 78.248 C 192.178 76.477 196.513 75.321 199.418 77.005 L 398.63 192.602 C 404.67 196.112 405.759 205.915 399.73 209.424 L 218.979 312.623 C 211.258 317.102 201.744 317.169 193.961 312.799 Z" style="fill: rgba(4, 32, 60, 0);"/>
  <path d="M 314.843 191.039 C 301.683 198.709 292.283 203.869 272.043 215.419 C 287.363 224.729 300.753 231.559 302.473 232.579 L 346.473 207.579 C 342.903 205.749 331.223 199.139 314.843 191.039 Z" opacity="0.32" fill="url(#linear-gradient)"/>
  <path d="M151,204.47c-15.86,9.25-27.19,15.46-51.58,29.38,18.46,11.22,34.6,19.46,36.68,20.68l53-30.09C184.85,222.2,170.78,214.23,151,204.47Z" opacity="0.32" fill="url(#linear-gradient-2)"/>
  <path d="M54.27,193.95c8.23-5.48,16.6-10.76,24.92-16.09l-11.82-8.63L21.59,188.33c5.53,2.9,13,8.33,20.86,13.86C46.36,199.4,50.27,196.61,54.27,193.95Z" opacity="0.32" fill="url(#linear-gradient-3)"/>
  <path d="M83.68,147.26a2.1,2.1,0,0,0-.37-.78,4.67,4.67,0,0,0-1.14-1c-5.81-3.93-13.86-5-20-1.17-1.4.88-3.49,2.87-2.66,4.75.48,1.09,1.94,1.73,3,2.17A44.57,44.57,0,0,0,73,154c1.3.22,2.62.44,3.93.56a5.43,5.43,0,0,0,4.79-2.05C82.63,151.32,84.09,149,83.68,147.26Z" fill="#754c24"/>
  <path d="M59.34,148.2s5.3,4.8,14.46,4.1,9.87-5,9.87-5-2.37,30.36-3.62,30.88-5.93,2.78-8.19,2.95-9.4-2.69-9.58-3.48S59.34,148.2,59.34,148.2Z" style="fill: rgb(222, 84, 214);"/>
  <path d="M61,104c-.28-.57-1.15-.07-.86.5,6.27,12.64,7.49,26.87,8.62,40.69.05.63,1.05.64,1,0C68.63,131.14,67.37,116.76,61,104Z" fill="#007f68"/>
  <path d="M 81.12 119.11 C 81.12 118.45 80.97 117.11 81.04 116 L 80.34 116.44 C 77.96 122.23 74.4 135.83 73.34 139.99 C 74.79 136.87 80.72 136.44 82.46 131.99 C 83.228 130.101 83.264 127.994 82.56 126.08 C 81.702 123.851 81.215 121.496 81.12 119.11 Z" fill="#007f68"/>
  <path d="M 60.21 104.08 C 60.21 104.08 61.96 110.64 60.15 113.92 C 58.34 117.2 56.85 117.85 59.01 121.92 C 61.17 125.99 66.95 126.54 67.33 129.66 C 67.71 132.78 64.57 109.65 60.21 104.08 Z" fill="#007f68"/>
  <path d="M80.26,115.92a82.45,82.45,0,0,0-8,32.26c0,.78,1.19.77,1.22,0a81,81,0,0,1,7.79-31.66C81.65,115.83,80.6,115.21,80.26,115.92Z" fill="#007f68"/>
  <path d="M214.59,232.12c16.12-8.68,54.27-27.87,70.27-36.75l-92.08-57.61-66.44,45.11C143.2,191.69,191.26,217.69,214.59,232.12Z" opacity="0.32" fill="url(#linear-gradient-4)"/>
  <path d="M136.88,135c.07,21.33.19,40.53.19,40.53s.45,1.74,3.66.32V133.72C139.45,134.15,138.17,134.56,136.88,135Z" fill="#5b434d"/>
  <path d="M226.07,186.84c.07,21.33.19,40.53.19,40.53s.45,1.74,3.66.32V185.6C228.64,186,227.36,186.44,226.07,186.84Z" fill="#5b434d"/>
  <path d="M281,154.52c.07,21.33.19,40.53.19,40.53s.45,1.74,3.66.32V153.28C283.58,153.7,282.3,154.12,281,154.52Z" fill="#5b434d"/>
  <polyline points="136.13 133.72 136.13 137.35 228.17 190.6 284.77 153.43 284.86 149.37" fill="#a5dd73"/>
  <polyline points="136.13 133.72 136.13 137.35 228.17 190.6 284.77 153.43 284.86 149.37" fill="#6db720" opacity="0.76"/>
  <polygon points="136.13 133.72 195.35 99.94 284.86 149.37 227.85 186.96 136.13 133.72" style="fill: rgb(222, 84, 214);"/>
  <path d="M218.31,116.14l-12.47,6a2.87,2.87,0,0,0-.2,5.07l29.57,17.25a2.87,2.87,0,0,0,3.86-.93l7.18-11.17" fill="#56403d"/>
  <path d="M281,84.17,179.13,25.5a3.31,3.31,0,0,0-5,2.87V90.7a2.56,2.56,0,0,0,1.28,2.21l108.39,62.57a1.23,1.23,0,0,0,1.85-1.07V92.33A9.42,9.42,0,0,0,281,84.17Z" fill="#68e1fd"/>
  <path d="M180.9,31l96.46,55.5a6.76,6.76,0,0,1,3.39,5.86v44.7a2.44,2.44,0,0,1-3.66,2.12L178.72,82.74a2.41,2.41,0,0,1-1.21-2.09V33A2.27,2.27,0,0,1,180.9,31Z" fill="#200a52"/>
  <ellipse cx="222.52" cy="115.11" rx="1.05" ry="0.01" transform="matrix(0.981959, -0.189095, 0.189095, 0.981959, -17.759999, 44.169997)" fill="#ab643c"/>
  <ellipse cx="273.43" cy="87.89" rx="1.05" ry="1.14" fill="#659fe4"/>
  <ellipse cx="270.08" cy="86.22" rx="1.05" ry="1.14" fill="#c5e9ff"/>
  <line x1="182.92" y1="43.35" x2="242.07" y2="76.96" fill="none" stroke="#00a99d" stroke-miterlimit="10" stroke-width="4"/>
  <line x1="183.13" y1="52.14" x2="192.71" y2="57.58" fill="none" stroke="#d4145a" stroke-miterlimit="10" stroke-width="4"/>
  <line x1="195.54" y1="59.42" x2="248.78" y2="88.69" fill="none" stroke="#29abe2" stroke-miterlimit="10" stroke-width="4"/>
  <line x1="182.92" y1="60.16" x2="203.36" y2="71.43" fill="none" stroke="#f7931e" stroke-miterlimit="10" stroke-width="4"/>
  <line x1="206.75" y1="73.57" x2="251.58" y2="97.55" stroke="#00a99d" stroke-miterlimit="10" stroke-width="4" style="fill: rgb(186, 218, 85);"/>
  <path d="M316.58,80.64v43a4.79,4.79,0,0,1-7.25,4.12l-40.91-24.4a4.79,4.79,0,0,1-2.34-4.12V57a4.79,4.79,0,0,1,7.19-4.15l40.91,23.62A4.79,4.79,0,0,1,316.58,80.64Z" style="fill: rgb(222, 84, 214);"/>
  <polyline points="287.38 75.78 274.12 85.53 286.01 102.22" stroke="#006837" stroke-miterlimit="10" stroke-width="4" fill="none"/>
  <polyline points="299.11 82.82 308.87 101.88 295.15 108.28" fill="none" stroke-miterlimit="10" stroke-width="4" style=""/>
  <path d="M 300.89 81.908 L 310.65 100.968 L 311.596 102.815 L 309.715 103.693 L 295.995 110.093 L 294.305 106.468 L 306.144 100.945 L 297.33 83.732 Z" style="fill: rgb(0, 104, 55);"/>
  <path d="M183.77,122.22,162.28,134.5a1.48,1.48,0,0,0,0,2.56L222,171.39a4.77,4.77,0,0,0,4.76,0l20.11-11.61a1.54,1.54,0,0,0,0-2.67l-60.4-34.89A2.67,2.67,0,0,0,183.77,122.22Z" fill="#200a52"/>
  <path d="M216.24,141.8l-6.13,3.64,4.55,2.64,6.16-3.62Z" fill="#fff"/>
  <path d="M209.52,137.89l-6.13,3.64,5.77,3.35,6.16-3.62Z" fill="#fff"/>
  <path d="M185.1,123.71l-6.23,3.58,5.54,3.22,6.16-3.62Z" fill="#fff"/>
  <path d="M198.23,131.34,192.1,135l4.55,2.64,6.16-3.62Z" fill="#fff"/>
  <path d="M191.51,127.43l-6.13,3.64,5.76,3.35c.68-.39,4.54-2.67,6.16-3.62Z" fill="#fff"/>
  <path d="M221.75,145l-6.13,3.64,4.36,2.53,6.15-3.62Z" fill="#fff"/>
  <path d="M203.74,134.54l-6.13,3.64,4.82,2.8,6.16-3.62Z" fill="#fff"/>
  <path d="M227.07,148.08l-6.13,3.64,5.77,3.35,6.16-3.62Z" fill="#fff"/>
  <polygon points="233.79 151.99 227.65 155.62 238 161.63 244.23 158.05 233.79 151.99" fill="#fff"/>
  <path d="M178.08,128.35l-6.23,3.58,8.06,4.68,6.16-3.62Z" fill="#fff"/>
  <path d="M193.72,137.43l-6.13,3.64,4.55,2.64,6.16-3.62Z" fill="#fff"/>
  <path d="M205,144l-6.13,3.64,5.77,3.35,6.16-3.62Z" fill="#fff"/>
  <path d="M199.23,140.63l-6.13,3.64,4.82,2.8,6.16-3.62Z" fill="#fff"/>
  <path d="M211.73,147.89l-6.13,3.64,4.55,2.64,6.15-3.62Z" fill="#fff"/>
  <path d="M217.24,151.09l-6.13,3.64,4.36,2.53,6.15-3.62Z" fill="#fff"/>
  <path d="M187,133.53l-6.13,3.64,5.76,3.35,6.16-3.62Z" fill="#fff"/>
  <path d="M222.55,154.18l-6.13,3.64,5.77,3.35,6.15-3.62Z" fill="#fff"/>
  <polygon points="223.14 161.72 230.97 166.27 237.21 162.69 229.27 158.08 223.14 161.72" fill="#fff"/>
  <polygon points="218.55 161.09 213.99 163.81 219.28 166.87 223.91 164.21 218.55 161.09" fill="#fff"/>
  <polygon points="220.38 167.51 224.88 170.11 229.52 167.46 224.93 164.8 220.38 167.51" fill="#fff"/>
  <polygon points="170.39 133.12 165.61 135.78 171.03 138.91 175.72 136.22 170.39 133.12" fill="#fff"/>
  <polygon points="176.73 136.81 172.12 139.55 177.91 142.9 182.59 140.21 176.73 136.81" fill="#fff"/>
  <polygon points="183.61 140.8 179.01 143.54 212.89 163.17 217.53 160.5 183.61 140.8" fill="#fff"/>
  <ellipse cx="339.69" cy="192.74" rx="18.83" ry="9.31" fill="#68e1fd"/>
  <path d="M358.53,167.94v25.32s-14,13-37.67.21V167.94" fill="#68e1fd"/>
  <path d="M343.83,192.49c-5.2,4-11.48,5.9-17.92,6.58a30.14,30.14,0,0,0,13.78,3c10,0,18.17-3.86,18.77-8.74l.06-.05V167.94h-.35C355,177,351.66,186.41,343.83,192.49Z" fill="#200a52" opacity="0.21"/>
  <path d="M323.68,177s-3.12-4.77-6.06-2-.37,12.3,8.26,13.22V192s-10.83-1.47-12.3-11.2,5.51-11.23,9-8.55" fill="#68e1fd"/>
  <ellipse cx="339.69" cy="168.04" rx="18.83" ry="9.31" fill="#663535"/>
  <path d="M162.47,168c-4.64-3.24-10.1-5-16-3.72-6.28,1.38-11.72,5.33-18.12,6.3-1,.15-5.05-.11-5.67.48-17.81,16.86,32,15.05,32,15.05,4.83-4,9.38-7.85,14.18-11.85C167.4,171.06,165,169.78,162.47,168Z" fill="#f8997c"/>
  <path d="M139,192.48l-1.77,50.86c-.07,1.93,2.93,1.93,3,0L142,192.48C142.1,190.55,139.11,190.56,139,192.48Z" fill="#f8997c"/>
  <path d="M176.37,219.69q-13.6-13.31-26-27.78c-1.26-1.47-3.37.66-2.12,2.12q12.38,14.46,26,27.78C175.63,223.16,177.76,221,176.37,219.69Z" fill="#f8997c"/>
  <path d="M128.64,187.78q-10.56,19.93-19.89,40.47c-.79,1.74,1.79,3.27,2.59,1.51q9.33-20.54,19.89-40.47C132.13,187.59,129.55,186.07,128.64,187.78Z" fill="#f8997c"/>
  <path d="M163.71,134c.61-.15,5.74-1.47,7-1.89s5.16-3.45,7.28-3,6.39,3.26,6.59,4.2-1,2.08-1.45,2.49-3.54-.72-4.74-.91-3.11,2.65-4.24,3.15-8.43,1.81-8.43,1.81" fill="#fcbf81"/>
  <path d="M177.5,146.46c.61-.15,5.74-1.47,7-1.89s5.16-3.45,7.28-3,6.39,3.26,6.59,4.2-1,2.08-1.45,2.49-3.54-.72-4.74-.91-3.11,2.65-4.24,3.15-8.43,1.81-8.43,1.81" fill="#fcbf81"/>
  <path d="M175.51,211.09c.93-1,1.54-2,1.22-3.05-.57-1.87-3.11-2.63-4.85-2.53s-3.54,1-5.3,1.5a13.17,13.17,0,0,1-5.75.71,1.28,1.28,0,0,1-.8-.45,3.17,3.17,0,0,1-2.33-2.12l-5.76-2.06s-1.47,12.17-1.42,13c.43,6.57,10.24,2.82,10.24,2.82s.35-3,.44-3.37,3.85.77,5.4.53a6.8,6.8,0,0,0,2-.93c1.16-.64,2.3-1.32,3.43-2S174.34,211.79,175.51,211.09Z" fill="#56403d"/>
  <path d="M154,166.17c-2.16.21-4.32.49-6.47.8q1.34,20.73,3,41.43c5.6,2.29,7.87,1.23,11.34-2.32.66-13.17,1.81-27,1.78-40.28C160.45,165.94,157.23,166.08,154,166.17Z" fill="#34323d"/>
  <path d="M130.73,162.38s-.93,15.13,6.67,18.5,23.19,1.69,30.86-2.81a82.82,82.82,0,0,1,12.44-6.21s2-6.62-2.81-9.48-15.35-6.4-24.73,0" fill="#34323d"/>
  <path d="M169.48,139.73c.81-3.09.34-8.19.34-8.19s-9.49,1.62-13.49,1-10.54-9-10.54-9l.89,16.6C154.26,141.73,162.11,142.07,169.48,139.73Z" fill="#ba3e00"/>
  <path d="M193.06,220.57c.93-1,1.54-2,1.22-3.05-.57-1.87-3.11-2.63-4.85-2.53s-3.54,1-5.3,1.5a13.17,13.17,0,0,1-5.75.71,1.28,1.28,0,0,1-.8-.45,3.17,3.17,0,0,1-2.33-2.12l-5.76-2.06s-1.47,12.17-1.42,13c.43,6.57,10.24,2.82,10.24,2.82s.35-3,.44-3.37,3.85.77,5.4.53a6.8,6.8,0,0,0,2-.93c1.16-.64,2.3-1.32,3.43-2S191.9,221.27,193.06,220.57Z" fill="#56403d"/>
  <path d="M170.9,162.75c-2-.94-4.06-.84-6.44-.83.33,4.87.15,6.62.45,11.48l.08,1.29c.92,14.4,2,28.79,3.1,43.18,5.6,2.29,7.87,1.23,11.34-2.32.77-15.33,2.22-31.51,1.66-46.77C177.86,165.58,175,164.67,170.9,162.75Z" fill="#34323d"/>
  <path d="M130.6,159.25c0,.37.07,1.62.13,3.13,3.15,4.15,7,6.58,13,6.4,4.89-.14,9-2.28,12.8-4.92-.48-8.85-1.91-24-4.14-34.53-.19-.89-2.5-1.49-3.18-1.86-1.59-.87-.66-2.37-2.22-3.3a53.5,53.5,0,0,0-7.05-3.44h-.06c-3.89-.06-10.6,2.94-11,8.15-.61,8,.27,12.85.89,20.84C130,152.94,130.33,156.12,130.6,159.25Z" fill="#e55600"/>
  <path d="M144.15,105.56c.51.13,4.83,10.07,3.14,16.11s-11.95-.17-14.53-4.77S134.45,103,144.15,105.56Z" fill="#fcbf81"/>
  <path d="M144,106.95s0,3.28-2.87,4.34-5.26,1.77-5.1,3.1,5.19-.19,5.21,2.85a22.66,22.66,0,0,1-.82,6.06c-.32,1.49-8.93-3.08-11.77-10.86s4.27-9.85,4.62-9.9,1-2.17,4.47-2.93,4.47.6,4.47.6a4.23,4.23,0,0,1,5.09.55c3.21,2.55,2.4,7.21-1.24,9.1Z" style="paint-order: stroke markers; fill: rgb(222, 84, 214);"/>
  <path d="M183.6,144c-4.47.93-13.55,2.41-16.76,1-2.49-1.09-10.8-18.91-19.83-20.82l-1.22,13.6s12.77,16.2,18.67,17.87c4.29,1.21,15.84-.41,20.91-2.17A19.35,19.35,0,0,0,183.6,144Z" fill="#e55600"/>
  <path d="M155.31,148.19c-.65-.84-8.05-9.22-8.05-9.22l8.89,18.21Z" fill="#34323d"/>
  <path d="M168.16,174a22.48,22.48,0,0,1-11.24,8.25c-6.34,1.93-15.56,1-18.89-5.61-6.06-12.06-.37-27.16-6.77-38.89a11.76,11.76,0,0,0-7.43-6.1c-4.15-.91-7,2.21-8.5,5.88-2.7,6.58-2.6,14.77-2.47,21.78a118.92,118.92,0,0,0,1.23,16.92s3.88,23.51,34.12,17.2a45.47,45.47,0,0,0,14.86-5.5,20.48,20.48,0,0,0,6.06-5.33C171,179.88,169.75,176.69,168.16,174Z" fill="#68e1fd"/>
  <path d="M 292.779 208.8 C 293.379 208.8 293.912 208.923 294.379 209.17 C 294.852 209.417 295.219 209.767 295.479 210.22 C 295.746 210.667 295.879 211.177 295.879 211.75 C 295.879 212.323 295.779 212.767 295.579 213.08 C 295.386 213.4 295.116 213.56 294.769 213.56 C 294.549 213.56 294.369 213.497 294.229 213.37 C 294.096 213.237 294.022 213.057 294.009 212.83 C 293.876 213.063 293.692 213.243 293.459 213.37 C 293.226 213.497 292.962 213.56 292.669 213.56 C 292.356 213.56 292.072 213.487 291.819 213.34 C 291.566 213.187 291.369 212.98 291.229 212.72 C 291.082 212.453 291.009 212.157 291.009 211.83 C 291.009 211.497 291.082 211.2 291.229 210.94 C 291.369 210.68 291.566 210.477 291.819 210.33 C 292.072 210.183 292.356 210.11 292.669 210.11 C 292.956 210.11 293.212 210.17 293.439 210.29 C 293.672 210.41 293.859 210.583 293.999 210.81 L 293.999 210.13 L 294.429 210.13 L 294.429 212.67 C 294.429 212.85 294.469 212.98 294.549 213.06 C 294.622 213.14 294.722 213.18 294.849 213.18 C 295.056 213.18 295.222 213.057 295.349 212.81 C 295.469 212.557 295.529 212.207 295.529 211.76 C 295.529 211.24 295.412 210.783 295.179 210.39 C 294.946 209.997 294.622 209.69 294.209 209.47 C 293.789 209.25 293.312 209.14 292.779 209.14 C 292.239 209.14 291.759 209.253 291.339 209.48 C 290.919 209.707 290.596 210.023 290.369 210.43 C 290.136 210.837 290.019 211.303 290.019 211.83 C 290.019 212.35 290.132 212.817 290.359 213.23 C 290.592 213.637 290.916 213.957 291.329 214.19 C 291.742 214.417 292.216 214.53 292.749 214.53 C 292.962 214.53 293.182 214.503 293.409 214.45 C 293.642 214.403 293.852 214.33 294.039 214.23 L 294.149 214.56 C 293.956 214.66 293.732 214.737 293.479 214.79 C 293.232 214.843 292.989 214.87 292.749 214.87 C 292.142 214.87 291.606 214.74 291.139 214.48 C 290.666 214.22 290.299 213.86 290.039 213.4 C 289.779 212.94 289.649 212.417 289.649 211.83 C 289.649 211.237 289.779 210.713 290.039 210.26 C 290.306 209.8 290.676 209.443 291.149 209.19 C 291.629 208.93 292.172 208.8 292.779 208.8 Z M 292.729 213.17 C 292.969 213.17 293.186 213.117 293.379 213.01 C 293.572 212.897 293.726 212.74 293.839 212.54 C 293.946 212.333 293.999 212.097 293.999 211.83 C 293.999 211.563 293.946 211.33 293.839 211.13 C 293.726 210.923 293.572 210.767 293.379 210.66 C 293.186 210.547 292.969 210.49 292.729 210.49 C 292.482 210.49 292.262 210.547 292.069 210.66 C 291.876 210.773 291.722 210.93 291.609 211.13 C 291.502 211.33 291.449 211.563 291.449 211.83 C 291.449 212.09 291.502 212.323 291.609 212.53 C 291.722 212.73 291.876 212.887 292.069 213 C 292.262 213.113 292.482 213.17 292.729 213.17 ZM 296.886 214.86 C 296.739 214.86 296.599 214.843 296.466 214.81 C 296.332 214.77 296.226 214.713 296.146 214.64 L 296.306 214.27 C 296.446 214.39 296.629 214.45 296.856 214.45 C 297.049 214.45 297.196 214.397 297.296 214.29 C 297.396 214.177 297.446 214.01 297.446 213.79 L 297.446 210.01 L 297.916 210.01 L 297.916 213.79 C 297.916 214.123 297.826 214.387 297.646 214.58 C 297.472 214.767 297.219 214.86 296.886 214.86 Z M 297.686 209.23 C 297.586 209.23 297.502 209.197 297.436 209.13 C 297.369 209.063 297.336 208.983 297.336 208.89 C 297.336 208.797 297.369 208.717 297.436 208.65 C 297.502 208.583 297.586 208.55 297.686 208.55 C 297.786 208.55 297.869 208.583 297.936 208.65 C 298.002 208.717 298.036 208.793 298.036 208.88 C 298.036 208.98 298.002 209.063 297.936 209.13 C 297.869 209.197 297.786 209.23 297.686 209.23 ZM 302.319 211.77 L 302.309 211.92 L 299.359 211.92 C 299.385 212.28 299.529 212.573 299.789 212.8 C 300.042 213.027 300.362 213.14 300.749 213.14 C 300.969 213.14 301.169 213.1 301.349 213.02 C 301.535 212.947 301.695 212.833 301.829 212.68 L 302.099 212.99 C 301.939 213.177 301.742 213.32 301.509 213.42 C 301.275 213.513 301.019 213.56 300.739 213.56 C 300.372 213.56 300.052 213.483 299.779 213.33 C 299.499 213.177 299.279 212.963 299.119 212.69 C 298.965 212.417 298.889 212.11 298.889 211.77 C 298.889 211.423 298.962 211.113 299.109 210.84 C 299.262 210.567 299.469 210.357 299.729 210.21 C 299.989 210.057 300.282 209.98 300.609 209.98 C 300.935 209.98 301.229 210.057 301.489 210.21 C 301.749 210.357 301.952 210.567 302.099 210.84 C 302.245 211.113 302.319 211.423 302.319 211.77 Z M 300.609 210.39 C 300.269 210.39 299.985 210.497 299.759 210.71 C 299.525 210.93 299.392 211.213 299.359 211.56 L 301.859 211.56 C 301.832 211.213 301.702 210.93 301.469 210.71 C 301.242 210.497 300.955 210.39 300.609 210.39 ZM 306.359 211.77 L 306.349 211.92 L 303.399 211.92 C 303.426 212.28 303.569 212.573 303.829 212.8 C 304.083 213.027 304.403 213.14 304.789 213.14 C 305.009 213.14 305.209 213.1 305.389 213.02 C 305.576 212.947 305.736 212.833 305.869 212.68 L 306.139 212.99 C 305.979 213.177 305.783 213.32 305.549 213.42 C 305.316 213.513 305.059 213.56 304.779 213.56 C 304.413 213.56 304.093 213.483 303.819 213.33 C 303.539 213.177 303.319 212.963 303.159 212.69 C 303.006 212.417 302.929 212.11 302.929 211.77 C 302.929 211.423 303.003 211.113 303.149 210.84 C 303.303 210.567 303.509 210.357 303.769 210.21 C 304.029 210.057 304.323 209.98 304.649 209.98 C 304.976 209.98 305.269 210.057 305.529 210.21 C 305.789 210.357 305.993 210.567 306.139 210.84 C 306.286 211.113 306.359 211.423 306.359 211.77 Z M 304.649 210.39 C 304.309 210.39 304.026 210.497 303.799 210.71 C 303.566 210.93 303.433 211.213 303.399 211.56 L 305.899 211.56 C 305.873 211.213 305.743 210.93 305.509 210.71 C 305.283 210.497 304.996 210.39 304.649 210.39 ZM 309.506 212.97 L 309.676 213.32 C 309.59 213.4 309.48 213.46 309.346 213.5 C 309.213 213.54 309.076 213.56 308.936 213.56 C 308.603 213.56 308.346 213.473 308.166 213.3 C 307.986 213.12 307.896 212.867 307.896 212.54 L 307.896 210.41 L 307.266 210.41 L 307.266 210.01 L 307.896 210.01 L 307.896 209.24 L 308.376 209.24 L 308.376 210.01 L 309.446 210.01 L 309.446 210.41 L 308.376 210.41 L 308.376 212.51 C 308.376 212.723 308.43 212.883 308.536 212.99 C 308.636 213.097 308.786 213.15 308.986 213.15 C 309.086 213.15 309.18 213.137 309.266 213.11 C 309.36 213.077 309.44 213.03 309.506 212.97 ZM 311.482 213.56 C 311.196 213.56 310.922 213.52 310.662 213.44 C 310.402 213.36 310.196 213.257 310.042 213.13 L 310.262 212.75 C 310.409 212.87 310.592 212.967 310.812 213.04 C 311.039 213.113 311.272 213.15 311.512 213.15 C 311.832 213.15 312.072 213.1 312.232 213 C 312.386 212.9 312.462 212.757 312.462 212.57 C 312.462 212.443 312.419 212.343 312.332 212.27 C 312.246 212.197 312.139 212.14 312.012 212.1 C 311.879 212.06 311.706 212.023 311.492 211.99 C 311.206 211.937 310.976 211.88 310.802 211.82 C 310.629 211.767 310.482 211.673 310.362 211.54 C 310.236 211.407 310.172 211.22 310.172 210.98 C 310.172 210.687 310.296 210.447 310.542 210.26 C 310.789 210.073 311.132 209.98 311.572 209.98 C 311.799 209.98 312.026 210.01 312.252 210.07 C 312.479 210.13 312.666 210.21 312.812 210.31 L 312.602 210.69 C 312.316 210.49 311.972 210.39 311.572 210.39 C 311.266 210.39 311.036 210.443 310.882 210.55 C 310.729 210.657 310.652 210.797 310.652 210.97 C 310.652 211.103 310.696 211.21 310.782 211.29 C 310.869 211.37 310.976 211.43 311.102 211.47 C 311.236 211.51 311.416 211.55 311.642 211.59 C 311.922 211.643 312.149 211.697 312.322 211.75 C 312.489 211.803 312.632 211.893 312.752 212.02 C 312.872 212.153 312.932 212.333 312.932 212.56 C 312.932 212.867 312.806 213.11 312.552 213.29 C 312.292 213.47 311.936 213.56 311.482 213.56 ZM 316.544 208.56 L 317.024 208.56 L 317.024 213.53 L 316.564 213.53 L 316.564 212.83 C 316.424 213.07 316.237 213.253 316.004 213.38 C 315.77 213.5 315.504 213.56 315.204 213.56 C 314.877 213.56 314.58 213.487 314.314 213.34 C 314.04 213.187 313.83 212.973 313.684 212.7 C 313.53 212.427 313.454 212.117 313.454 211.77 C 313.454 211.423 313.53 211.113 313.684 210.84 C 313.83 210.567 314.04 210.353 314.314 210.2 C 314.58 210.053 314.877 209.98 315.204 209.98 C 315.49 209.98 315.75 210.04 315.984 210.16 C 316.21 210.273 316.397 210.447 316.544 210.68 L 316.544 208.56 Z M 315.244 213.14 C 315.49 213.14 315.714 213.083 315.914 212.97 C 316.114 212.857 316.27 212.693 316.384 212.48 C 316.497 212.273 316.554 212.037 316.554 211.77 C 316.554 211.503 316.497 211.263 316.384 211.05 C 316.27 210.843 316.114 210.683 315.914 210.57 C 315.714 210.45 315.49 210.39 315.244 210.39 C 314.997 210.39 314.774 210.45 314.574 210.57 C 314.374 210.683 314.217 210.843 314.104 211.05 C 313.99 211.263 313.934 211.503 313.934 211.77 C 313.934 212.037 313.99 212.273 314.104 212.48 C 314.217 212.693 314.374 212.857 314.574 212.97 C 314.774 213.083 314.997 213.14 315.244 213.14 ZM 321.42 211.77 L 321.41 211.92 L 318.46 211.92 C 318.486 212.28 318.63 212.573 318.89 212.8 C 319.143 213.027 319.463 213.14 319.85 213.14 C 320.07 213.14 320.27 213.1 320.45 213.02 C 320.636 212.947 320.796 212.833 320.93 212.68 L 321.2 212.99 C 321.04 213.177 320.843 213.32 320.61 213.42 C 320.376 213.513 320.12 213.56 319.84 213.56 C 319.473 213.56 319.153 213.483 318.88 213.33 C 318.6 213.177 318.38 212.963 318.22 212.69 C 318.066 212.417 317.99 212.11 317.99 211.77 C 317.99 211.423 318.063 211.113 318.21 210.84 C 318.363 210.567 318.57 210.357 318.83 210.21 C 319.09 210.057 319.383 209.98 319.71 209.98 C 320.036 209.98 320.33 210.057 320.59 210.21 C 320.85 210.357 321.053 210.567 321.2 210.84 C 321.346 211.113 321.42 211.423 321.42 211.77 Z M 319.71 210.39 C 319.37 210.39 319.086 210.497 318.86 210.71 C 318.626 210.93 318.493 211.213 318.46 211.56 L 320.96 211.56 C 320.933 211.213 320.803 210.93 320.57 210.71 C 320.343 210.497 320.056 210.39 319.71 210.39 ZM 324.813 210.01 L 325.273 210.01 L 323.713 213.53 L 323.223 213.53 L 321.663 210.01 L 322.153 210.01 L 323.473 213.01 L 324.813 210.01 Z" transform="matrix(1, 0, 0, 1, 0, 0)" style="fill: rgb(0, 255, 255); paint-order: fill; stroke-width: 49px; white-space: pre;"/>
  <path d="M 188.271 70.693 L 188.271 71.483 L 183.641 73.313 L 188.271 75.143 L 188.271 75.923 L 182.791 73.733 L 182.791 72.893 L 188.271 70.693 ZM 192.154 77.783 C 191.62 77.783 191.107 77.706 190.614 77.553 C 190.12 77.4 189.737 77.203 189.464 76.963 L 189.864 76.263 C 190.144 76.483 190.494 76.66 190.914 76.793 C 191.334 76.933 191.77 77.003 192.224 77.003 C 192.824 77.003 193.27 76.91 193.564 76.723 C 193.85 76.53 193.994 76.263 193.994 75.923 C 193.994 75.676 193.914 75.483 193.754 75.343 C 193.594 75.21 193.394 75.106 193.154 75.033 C 192.907 74.96 192.584 74.89 192.184 74.823 C 191.644 74.723 191.21 74.62 190.884 74.513 C 190.557 74.413 190.277 74.236 190.044 73.983 C 189.817 73.73 189.704 73.38 189.704 72.933 C 189.704 72.38 189.934 71.926 190.394 71.573 C 190.854 71.22 191.497 71.043 192.324 71.043 C 192.75 71.043 193.177 71.1 193.604 71.213 C 194.037 71.326 194.39 71.476 194.664 71.663 L 194.274 72.383 C 193.727 72.003 193.077 71.813 192.324 71.813 C 191.75 71.813 191.32 71.913 191.034 72.113 C 190.74 72.32 190.594 72.586 190.594 72.913 C 190.594 73.16 190.677 73.36 190.844 73.513 C 191.004 73.666 191.207 73.78 191.454 73.853 C 191.694 73.92 192.03 73.993 192.464 74.073 C 192.99 74.173 193.414 74.273 193.734 74.373 C 194.054 74.473 194.327 74.646 194.554 74.893 C 194.78 75.133 194.894 75.466 194.894 75.893 C 194.894 76.473 194.65 76.933 194.164 77.273 C 193.684 77.613 193.014 77.783 192.154 77.783 ZM 199.696 76.673 L 200.016 77.323 C 199.849 77.47 199.639 77.583 199.386 77.663 C 199.139 77.743 198.883 77.783 198.616 77.783 C 197.996 77.783 197.516 77.616 197.176 77.283 C 196.843 76.943 196.676 76.47 196.676 75.863 L 196.676 71.853 L 195.486 71.853 L 195.486 71.093 L 196.676 71.093 L 196.676 69.643 L 197.566 69.643 L 197.566 71.093 L 199.586 71.093 L 199.586 71.853 L 197.566 71.853 L 197.566 75.803 C 197.566 76.203 197.666 76.506 197.866 76.713 C 198.066 76.913 198.349 77.013 198.716 77.013 C 198.903 77.013 199.083 76.986 199.256 76.933 C 199.423 76.873 199.569 76.786 199.696 76.673 ZM 206.18 71.093 L 207.07 71.093 L 203.75 78.513 C 203.483 79.14 203.173 79.583 202.82 79.843 C 202.467 80.103 202.043 80.233 201.55 80.233 C 201.23 80.233 200.93 80.183 200.65 80.083 C 200.377 79.983 200.137 79.83 199.93 79.623 L 200.35 78.953 C 200.683 79.293 201.087 79.463 201.56 79.463 C 201.86 79.463 202.12 79.38 202.34 79.213 C 202.553 79.04 202.75 78.753 202.93 78.353 L 203.22 77.713 L 200.26 71.093 L 201.2 71.093 L 203.69 76.723 L 206.18 71.093 ZM 208.308 77.723 L 208.308 68.373 L 209.198 68.373 L 209.198 77.723 L 208.308 77.723 ZM 217.467 74.413 L 217.457 74.683 L 211.907 74.683 C 211.96 75.376 212.227 75.933 212.707 76.353 C 213.187 76.78 213.79 76.993 214.517 76.993 C 214.93 76.993 215.31 76.92 215.657 76.773 C 215.997 76.626 216.294 76.41 216.547 76.123 L 217.057 76.703 C 216.757 77.056 216.387 77.326 215.947 77.513 C 215.507 77.693 215.024 77.783 214.497 77.783 C 213.817 77.783 213.214 77.64 212.687 77.353 C 212.16 77.06 211.75 76.66 211.457 76.153 C 211.164 75.64 211.017 75.06 211.017 74.413 C 211.017 73.766 211.157 73.186 211.437 72.673 C 211.717 72.16 212.104 71.76 212.597 71.473 C 213.09 71.186 213.644 71.043 214.257 71.043 C 214.87 71.043 215.42 71.186 215.907 71.473 C 216.394 71.76 216.777 72.156 217.057 72.663 C 217.33 73.17 217.467 73.753 217.467 74.413 Z M 214.257 71.813 C 213.617 71.813 213.08 72.016 212.647 72.423 C 212.214 72.83 211.967 73.363 211.907 74.023 L 216.607 74.023 C 216.554 73.363 216.31 72.83 215.877 72.423 C 215.444 72.016 214.904 71.813 214.257 71.813 ZM 218.904 70.693 L 224.384 72.893 L 224.384 73.733 L 218.904 75.923 L 218.904 75.143 L 223.544 73.313 L 218.904 71.483 L 218.904 70.693 Z" transform="matrix(0.49018198251724243, 0.2730479836463928, -0.2308569997549057, 0.5060629844665527, 141.53929138183594, 2.065747022628784)" style="fill: rgb(0, 255, 255); white-space: pre;"/>
  <path d="M 188.271 70.693 L 188.271 71.483 L 183.641 73.313 L 188.271 75.143 L 188.271 75.923 L 182.791 73.733 L 182.791 72.893 L 188.271 70.693 ZM 192.167 77.783 C 191.634 77.783 191.12 77.706 190.627 77.553 C 190.134 77.4 189.75 77.203 189.477 76.963 L 189.877 76.263 C 190.157 76.483 190.507 76.66 190.927 76.793 C 191.347 76.933 191.784 77.003 192.237 77.003 C 192.837 77.003 193.284 76.91 193.577 76.723 C 193.864 76.53 194.007 76.263 194.007 75.923 C 194.007 75.676 193.927 75.483 193.767 75.343 C 193.607 75.21 193.407 75.106 193.167 75.033 C 192.92 74.96 192.597 74.89 192.197 74.823 C 191.657 74.723 191.224 74.62 190.897 74.513 C 190.57 74.413 190.29 74.236 190.057 73.983 C 189.83 73.73 189.717 73.38 189.717 72.933 C 189.717 72.38 189.947 71.926 190.407 71.573 C 190.867 71.22 191.51 71.043 192.337 71.043 C 192.764 71.043 193.19 71.1 193.617 71.213 C 194.05 71.326 194.404 71.476 194.677 71.663 L 194.287 72.383 C 193.74 72.003 193.09 71.813 192.337 71.813 C 191.764 71.813 191.334 71.913 191.047 72.113 C 190.754 72.32 190.607 72.586 190.607 72.913 C 190.607 73.16 190.69 73.36 190.857 73.513 C 191.017 73.666 191.22 73.78 191.467 73.853 C 191.707 73.92 192.044 73.993 192.477 74.073 C 193.004 74.173 193.427 74.273 193.747 74.373 C 194.067 74.473 194.34 74.646 194.567 74.893 C 194.794 75.133 194.907 75.466 194.907 75.893 C 194.907 76.473 194.664 76.933 194.177 77.273 C 193.697 77.613 193.027 77.783 192.167 77.783 ZM 199.291 77.783 C 198.637 77.783 198.054 77.64 197.541 77.353 C 197.021 77.073 196.614 76.673 196.321 76.153 C 196.027 75.64 195.881 75.06 195.881 74.413 C 195.881 73.766 196.027 73.186 196.321 72.673 C 196.614 72.16 197.021 71.76 197.541 71.473 C 198.054 71.186 198.637 71.043 199.291 71.043 C 199.864 71.043 200.377 71.156 200.831 71.383 C 201.277 71.603 201.631 71.926 201.891 72.353 L 201.221 72.813 C 201.001 72.48 200.724 72.233 200.391 72.073 C 200.057 71.906 199.691 71.823 199.291 71.823 C 198.817 71.823 198.387 71.93 198.001 72.143 C 197.621 72.363 197.324 72.67 197.111 73.063 C 196.897 73.456 196.791 73.906 196.791 74.413 C 196.791 74.92 196.897 75.37 197.111 75.763 C 197.324 76.156 197.621 76.46 198.001 76.673 C 198.387 76.886 198.817 76.993 199.291 76.993 C 199.691 76.993 200.057 76.913 200.391 76.753 C 200.724 76.593 201.001 76.35 201.221 76.023 L 201.891 76.473 C 201.631 76.906 201.274 77.233 200.821 77.453 C 200.367 77.673 199.857 77.783 199.291 77.783 ZM 204.486 72.393 C 204.699 71.946 205.012 71.61 205.426 71.383 C 205.846 71.156 206.362 71.043 206.976 71.043 L 206.976 71.913 L 206.756 71.903 C 206.062 71.903 205.516 72.116 205.116 72.543 C 204.722 72.97 204.526 73.57 204.526 74.343 L 204.526 77.723 L 203.636 77.723 L 203.636 71.093 L 204.486 71.093 L 204.486 72.393 ZM 208.581 77.723 L 208.581 71.093 L 209.471 71.093 L 209.471 77.723 L 208.581 77.723 Z M 209.031 69.643 C 208.844 69.643 208.688 69.58 208.561 69.453 C 208.441 69.333 208.381 69.183 208.381 69.003 C 208.381 68.836 208.441 68.69 208.561 68.563 C 208.688 68.436 208.844 68.373 209.031 68.373 C 209.218 68.373 209.374 68.433 209.501 68.553 C 209.628 68.68 209.691 68.826 209.691 68.993 C 209.691 69.18 209.628 69.333 209.501 69.453 C 209.374 69.58 209.218 69.643 209.031 69.643 ZM 215.376 71.043 C 215.996 71.043 216.56 71.183 217.066 71.463 C 217.573 71.75 217.966 72.146 218.246 72.653 C 218.533 73.166 218.676 73.753 218.676 74.413 C 218.676 75.073 218.533 75.66 218.246 76.173 C 217.966 76.686 217.576 77.083 217.076 77.363 C 216.576 77.643 216.01 77.783 215.376 77.783 C 214.843 77.783 214.36 77.673 213.926 77.453 C 213.493 77.233 213.136 76.906 212.856 76.473 L 212.856 80.163 L 211.966 80.163 L 211.966 71.093 L 212.816 71.093 L 212.816 72.403 C 213.09 71.97 213.446 71.633 213.886 71.393 C 214.326 71.16 214.823 71.043 215.376 71.043 Z M 215.316 76.993 C 215.776 76.993 216.196 76.886 216.576 76.673 C 216.956 76.46 217.253 76.153 217.466 75.753 C 217.68 75.36 217.786 74.913 217.786 74.413 C 217.786 73.906 217.68 73.456 217.466 73.063 C 217.253 72.676 216.956 72.373 216.576 72.153 C 216.196 71.933 215.776 71.823 215.316 71.823 C 214.843 71.823 214.42 71.933 214.046 72.153 C 213.673 72.373 213.38 72.676 213.166 73.063 C 212.953 73.456 212.846 73.906 212.846 74.413 C 212.846 74.913 212.953 75.36 213.166 75.753 C 213.38 76.153 213.673 76.46 214.046 76.673 C 214.42 76.886 214.843 76.993 215.316 76.993 ZM 223.668 76.673 L 223.988 77.323 C 223.822 77.47 223.612 77.583 223.358 77.663 C 223.112 77.743 222.855 77.783 222.588 77.783 C 221.968 77.783 221.488 77.616 221.148 77.283 C 220.815 76.943 220.648 76.47 220.648 75.863 L 220.648 71.853 L 219.458 71.853 L 219.458 71.093 L 220.648 71.093 L 220.648 69.643 L 221.538 69.643 L 221.538 71.093 L 223.558 71.093 L 223.558 71.853 L 221.538 71.853 L 221.538 75.803 C 221.538 76.203 221.638 76.506 221.838 76.713 C 222.038 76.913 222.322 77.013 222.688 77.013 C 222.875 77.013 223.055 76.986 223.228 76.933 C 223.395 76.873 223.542 76.786 223.668 76.673 ZM 225.238 70.693 L 230.718 72.893 L 230.718 73.733 L 225.238 75.923 L 225.238 75.143 L 229.878 73.313 L 225.238 71.483 L 225.238 70.693 Z" transform="matrix(0.532948911190033, 0.24848902225494385, -0.24271000921726227, 0.532046914100647, 164.33518981933594, 21.922134399414062)" style="fill: rgb(0, 255, 255); white-space: pre;"/>
  <path d="M 187.931 71.073 L 187.931 71.823 L 183.541 73.553 L 187.931 75.283 L 187.931 76.023 L 182.741 73.943 L 182.741 73.153 L 187.931 71.073 ZM 193.128 71.403 C 193.921 71.403 194.548 71.633 195.008 72.093 C 195.475 72.546 195.708 73.21 195.708 74.083 L 195.708 77.723 L 194.858 77.723 L 194.858 74.173 C 194.858 73.52 194.695 73.023 194.368 72.683 C 194.048 72.336 193.585 72.163 192.978 72.163 C 192.305 72.163 191.771 72.366 191.378 72.773 C 190.985 73.173 190.788 73.726 190.788 74.433 L 190.788 77.723 L 189.938 77.723 L 189.938 68.873 L 190.788 68.873 L 190.788 72.553 C 191.015 72.186 191.331 71.903 191.738 71.703 C 192.145 71.503 192.608 71.403 193.128 71.403 ZM 201 76.733 L 201.3 77.343 C 201.14 77.483 200.943 77.593 200.71 77.673 C 200.477 77.746 200.233 77.783 199.98 77.783 C 199.393 77.783 198.94 77.623 198.62 77.303 C 198.3 76.99 198.14 76.543 198.14 75.963 L 198.14 72.163 L 197.02 72.163 L 197.02 71.453 L 198.14 71.453 L 198.14 70.083 L 198.99 70.083 L 198.99 71.453 L 200.9 71.453 L 200.9 72.163 L 198.99 72.163 L 198.99 75.913 C 198.99 76.286 199.083 76.57 199.27 76.763 C 199.457 76.956 199.723 77.053 200.07 77.053 C 200.25 77.053 200.42 77.026 200.58 76.973 C 200.747 76.92 200.887 76.84 201 76.733 ZM 210.655 71.403 C 211.441 71.403 212.058 71.63 212.505 72.083 C 212.958 72.536 213.185 73.203 213.185 74.083 L 213.185 77.723 L 212.335 77.723 L 212.335 74.173 C 212.335 73.52 212.178 73.023 211.865 72.683 C 211.551 72.336 211.108 72.163 210.535 72.163 C 209.881 72.163 209.368 72.366 208.995 72.773 C 208.621 73.173 208.435 73.726 208.435 74.433 L 208.435 77.723 L 207.595 77.723 L 207.595 74.173 C 207.595 73.52 207.438 73.023 207.125 72.683 C 206.805 72.336 206.355 72.163 205.775 72.163 C 205.135 72.163 204.625 72.366 204.245 72.773 C 203.871 73.173 203.685 73.726 203.685 74.433 L 203.685 77.723 L 202.835 77.723 L 202.835 71.453 L 203.645 71.453 L 203.645 72.593 C 203.865 72.213 204.175 71.92 204.575 71.713 C 204.975 71.506 205.431 71.403 205.945 71.403 C 206.471 71.403 206.928 71.516 207.315 71.743 C 207.695 71.963 207.981 72.293 208.175 72.733 C 208.408 72.32 208.741 71.993 209.175 71.753 C 209.608 71.52 210.101 71.403 210.655 71.403 ZM 215.469 77.723 L 215.469 68.873 L 216.319 68.873 L 216.319 77.723 L 215.469 77.723 ZM 218.322 71.073 L 223.512 73.153 L 223.512 73.943 L 218.322 76.023 L 218.322 75.283 L 222.712 73.553 L 218.322 71.823 L 218.322 71.073 Z" transform="matrix(0.532948911190033, 0.24848902225494385, -0.24271000921726227, 0.532046914100647, 104.12496185302734, -10.107284545898438)" style="fill: rgb(0, 255, 255); line-height: 16.3484px; white-space: pre;"/>
</svg>